<svg xmlns="http://www.w3.org/2000/svg" xmlns:xlink="http://www.w3.org/1999/xlink" width="200" height="57.103" viewBox="0 0 240 57.103">
  <defs>
    <linearGradient id="linear-gradient" x1="-3.042" y1="14.632" x2="1.616" y2="14.632" gradientUnits="objectBoundingBox">
      <stop offset="0" stop-color="#0f1531"/>
      <stop offset="1" stop-color="#1f9cd8"/>
    </linearGradient>
    <linearGradient id="linear-gradient-2" x1="-2.257" y1="18.385" x2="2.959" y2="18.385" xlink:href="#linear-gradient"/>
    <linearGradient id="linear-gradient-3" x1="-6.822" y1="14.627" x2="0.806" y2="14.627" xlink:href="#linear-gradient"/>
    <linearGradient id="linear-gradient-4" x1="-0.292" y1="18.052" x2="2.929" y2="18.052" xlink:href="#linear-gradient"/>
  </defs>
  <g id="Logo_MUDT_full_color_horizontal" data-name="Logo MUDT full color horizontal" transform="translate(210 28.551)">
    <g id="Group_3" data-name="Group 3" transform="translate(-200 -28.551)">
            <rect id="Rectangle_1" data-name="Rectangle 1" width="1.132" height="57.103" transform="translate(214.225)" fill="#333"/>
      <g id="Group_1" data-name="Group 1">
        <path id="Path_1" data-name="Path 1" d="M147.605,17.344q-4.212-3.78-11.449-3.786a21.215,21.215,0,0,0-15.749,6.429,21.57,21.57,0,0,0-6.337,15.749,21.561,21.561,0,0,0,6.357,15.77c4.238,4.279,9.485,5.555,15.729,5.555,4.855,0,8.672-.391,11.449-2.88v2.88h11.254V0H147.605Zm-.381,21.284-10.75-2.88L139.4,46.692a11.368,11.368,0,0,1-2.819.391,10.5,10.5,0,0,1-7.993-3.477,11.212,11.212,0,0,1-3.261-7.88,12.386,12.386,0,0,1,.37-2.87l10.781,2.88-2.921-10.9a12.01,12.01,0,0,1,3.035-.411,10.578,10.578,0,0,1,7.88,3.21,11.109,11.109,0,0,1,3.148,8.086,12.024,12.024,0,0,1-.381,2.891v.021Z" transform="translate(3.273)" fill="url(#linear-gradient)"/>
        <path id="Path_2" data-name="Path 2" d="M7.355,10.12,0,17.475l10.05,2.7Z" transform="translate(0 0.29)" fill="#1f9cd8"/>
        <path id="Path_3" data-name="Path 3" d="M98.369,37.583a9.011,9.011,0,1,1-18.023,0V11.65H69.36V37.583c0,11.028,8.97,19.154,20,19.154A14.25,14.25,0,0,0,93.524,56a19.629,19.629,0,0,0,4.845-2.15v2.891h10.986V11.65H98.369Z" transform="translate(1.99 0.334)" fill="url(#linear-gradient-2)"/>
        <path id="Path_4" data-name="Path 4" d="M190.353,21.911V10.925H179.891V0H168.9V10.935H163V21.921h5.9V37.588A19.521,19.521,0,0,0,188.4,57.082V46.1a8.524,8.524,0,0,1-8.507-8.507V21.921h10.462Z" transform="translate(4.677)" fill="url(#linear-gradient-3)"/>
        <path id="Path_5" data-name="Path 5" d="M45.839,10.85a18.388,18.388,0,0,0-13.445,5.936A18.388,18.388,0,0,0,18.949,10.85a17.97,17.97,0,0,0-7.581,1.738v8.785H0V56.781H10.986V30.848c0-4.969,3.57-9.022,7.952-9.022s7.952,4.043,7.952,9.022V56.781H37.876V30.848c0-4.969,3.57-9.022,7.952-9.022s7.952,4.043,7.952,9.022V56.781H64.766V30.848c0-11.038-8.5-20.008-18.938-20.008h.01Z" transform="translate(0 0.311)" fill="url(#linear-gradient-4)"/>
      </g>
    </g>
  </g>
</svg>
